<svg xmlns="http://www.w3.org/2000/svg" xmlns:xlink="http://www.w3.org/1999/xlink" width="673.7" height="134.4" viewBox="0 0 673.699 134.4"><linearGradient id="a" gradientUnits="userSpaceOnUse" x1="180.78" y1="-37.46" x2="85.74" y2="57.57" gradientTransform="matrix(1 0 0 -1 -66.06 77.254)"><stop offset="0" stop-color="#C92328"/><stop offset="1" stop-color="#EF3C51"/></linearGradient><circle fill="url(#a)" cx="67.2" cy="67.2" r="67.2"/><g transform="translate(-57.7 -81.2)"><defs><circle id="b" cx="124.9" cy="148.4" r="67.2"/></defs><clipPath id="c"><use xlink:href="#b" overflow="visible"/></clipPath><linearGradient id="d" gradientUnits="userSpaceOnUse" x1="235.59" y1="39.53" x2="187.49" y2="122.85" gradientTransform="matrix(1 0 0 -1 -66.06 239.654)"><stop offset="0" stop-color="#B22A3E"/><stop offset=".39" stop-color="#9C2132"/><stop offset=".83" stop-color="#7F0B10"/><stop offset="1" stop-color="#740202"/></linearGradient><path opacity=".25" clip-path="url(#c)" fill="url(#d)" d="M190.6 161.2l-39.7-37.3-3.2-1.9c-5.4-6.1-25.7-.8-31.8-2-.7 19.5-1.3 39.5-2.1 59 10.6 11.4 21.1 22.3 31.6 33.4 23.1-7.6 40.6-27.1 45.2-51.2z"/></g><path fill="#FFF" d="M625.5 91.9v-4.4h1c1.4 0 2.7-.2 3.9-.5s2.2-.8 3.2-1.4c1-.6 1.9-1.3 2.7-2 .2-.2.4-.3.6-.4s.5-.2.8-.2c.6 0 1.2.2 1.6.6.4.4.6.9.6 1.5 0 .3-.1.6-.2.9-.1.3-.3.5-.6.8-1.1 1-2.2 1.9-3.5 2.7-1.2.8-2.6 1.4-4.2 1.8-1.5.4-3.3.6-5.2.6h-.7zm0-15.9v-3.7h10.9c-.1-1.6-.4-3-1-4.4-.5-1.4-1.2-2.6-2.1-3.7-.9-1.1-2-1.9-3.3-2.5-1.3-.6-2.8-.9-4.5-.9h-.1v-4.3h.2c2 0 3.8.3 5.5.9 1.7.6 3.1 1.4 4.4 2.5 1.3 1.1 2.3 2.3 3.2 3.8.9 1.5 1.5 3 2 4.7.4 1.7.7 3.4.7 5.2 0 .5-.1.9-.3 1.2-.2.4-.5.6-.9.8-.4.2-.7.3-1.2.3h-13.5v.1zm36.2 15.8c1.7 0 3.3-.2 4.7-.7 1.5-.4 2.7-1.1 3.8-2 1.1-.9 1.9-1.9 2.6-3.2.6-1.3.9-2.7.9-4.3v-.1c0-1.5-.3-2.8-1-3.9-.6-1.1-1.5-2-2.5-2.7-1.1-.7-2.2-1.3-3.5-1.8-1.3-.5-2.6-.9-3.9-1.3-1.1-.3-2.2-.7-3.3-1-1-.4-2-.8-2.8-1.2-.8-.4-1.5-1-1.9-1.5-.5-.6-.7-1.3-.7-2.1v-.2c0-1 .3-1.8.8-2.5s1.3-1.3 2.3-1.8c1-.4 2.1-.6 3.5-.6 1.5 0 2.9.2 4.4.7 1.5.4 3 1.1 4.4 1.9.1.1.3.1.5.2s.4.1.6.1c.6 0 1.2-.2 1.6-.6.4-.4.6-.9.6-1.5 0-.5-.1-.9-.4-1.3-.2-.4-.5-.6-.9-.8-1.1-.6-2.3-1.1-3.5-1.5-1.2-.4-2.4-.8-3.7-1-1.2-.2-2.5-.4-3.7-.4-1.7 0-3.2.2-4.6.7-1.4.5-2.6 1.1-3.7 2-1 .9-1.8 1.9-2.4 3.1s-.9 2.5-.9 4v.1c0 1.5.4 2.9 1 3.9.7 1.1 1.5 1.9 2.6 2.7 1.1.7 2.3 1.3 3.6 1.8s2.7.9 4 1.3c1.1.3 2.2.6 3.2 1 1 .3 1.9.7 2.7 1.2.8.4 1.4 1 1.9 1.6.4.6.7 1.3.7 2.2v.1c0 1.1-.3 2.1-.9 2.9-.6.8-1.4 1.4-2.5 1.9-1.1.4-2.3.7-3.6.7-1.8 0-3.7-.3-5.5-.9-1.8-.6-3.6-1.5-5.3-2.7l-.6-.3c-.2-.1-.4-.1-.7-.1-.6 0-1.2.2-1.6.6-.4.4-.6.9-.6 1.5 0 .4.1.8.3 1.1.2.3.4.6.6.7 1.2.9 2.6 1.6 4 2.3 1.5.6 2.9 1.1 4.5 1.5 1.9 0 3.4.2 4.9.2zm-36.2-35.4v4.3c-1.5 0-2.8.3-4 .9-1.3.6-2.4 1.4-3.4 2.4s-1.8 2.3-2.4 3.7c-.6 1.4-1 2.9-1.2 4.6h10.9V76h-10.9c.2 1.8.6 3.5 1.3 4.9.7 1.4 1.6 2.6 2.7 3.6s2.3 1.7 3.7 2.2c1.1.4 2.1.6 3.3.7v4.4c-2-.1-3.9-.5-5.7-1.3-2-.8-3.8-2-5.4-3.6-1.6-1.6-2.8-3.4-3.6-5.6-.9-2.2-1.3-4.6-1.3-7.2V74c0-2.5.4-4.8 1.2-6.9.8-2.1 1.9-4 3.4-5.6 1.5-1.6 3.2-2.9 5.2-3.8 1.9-.8 3.9-1.2 6.2-1.3zM524.1 91.9v-4.4h1c1.4 0 2.7-.2 3.9-.5 1.2-.3 2.2-.8 3.2-1.4 1-.6 1.9-1.3 2.7-2 .2-.2.4-.3.6-.4.2-.1.5-.2.8-.2.6 0 1.2.2 1.6.6.4.4.6.9.6 1.5 0 .3-.1.6-.2.9-.1.3-.3.5-.6.8-1.1 1-2.2 1.9-3.5 2.7-1.2.8-2.6 1.4-4.2 1.8-1.5.4-3.3.6-5.2.6h-.7zm0-15.9v-3.7H535c-.1-1.6-.4-3-1-4.4-.5-1.4-1.2-2.6-2.1-3.7-.9-1.1-2-1.9-3.3-2.5s-2.8-.9-4.5-.9h-.1v-4.3h.2c2 0 3.8.3 5.5.9 1.7.6 3.1 1.4 4.4 2.5 1.3 1.1 2.3 2.3 3.2 3.8.9 1.5 1.5 3 2 4.7.4 1.7.7 3.4.7 5.2 0 .5-.1.9-.3 1.2-.2.4-.5.6-.9.8-.4.2-.7.3-1.2.3h-13.5v.1zm25 12.9c0 .7.3 1.3.7 1.8.5.5 1.1.7 1.8.7s1.3-.3 1.8-.7c.5-.5.7-1.1.7-1.8V71.7c0-2.1.4-4 1.3-5.6.8-1.6 1.9-2.9 3.4-3.8 1.4-.9 3-1.4 4.9-1.4 1.8 0 3.4.4 4.7 1.2 1.3.8 2.3 1.9 3 3.5.7 1.5 1.1 3.3 1.1 5.5v17.7c0 .7.3 1.3.7 1.8.5.5 1.1.7 1.8.7s1.3-.3 1.8-.7c.5-.5.7-1.1.7-1.8V71.5c0-1.7.3-3.2.7-4.5.5-1.3 1.2-2.4 2-3.3.9-.9 1.8-1.6 3-2 1.1-.5 2.3-.7 3.6-.7 1.9 0 3.4.4 4.7 1.2 1.3.8 2.3 1.9 3 3.5.7 1.5 1.1 3.4 1.1 5.6v17.6c0 .7.3 1.3.7 1.8.5.5 1.1.7 1.8.7s1.3-.3 1.8-.7c.5-.5.7-1.1.7-1.8V70.1c0-2.8-.5-5.2-1.5-7.3-1-2-2.5-3.6-4.3-4.7-1.9-1.1-4.1-1.7-6.7-1.7-2 0-3.7.3-5.2.9-1.5.6-2.8 1.4-3.9 2.4s-2.1 2.2-2.9 3.4c-.6-1.3-1.4-2.4-2.4-3.4s-2.2-1.8-3.6-2.4c-1.4-.6-3-.9-4.9-.9-1.9 0-3.5.3-4.9.9-1.4.6-2.5 1.4-3.5 2.4s-1.8 2-2.6 3.2v-3.5c0-.7-.3-1.3-.7-1.8-.5-.5-1.1-.7-1.8-.7-.5 0-.9.1-1.3.4-.4.2-.7.5-.9.9-.2.4-.3.8-.3 1.3v29.4h-.1zm-25-32.5v4.3c-1.5 0-2.8.3-4 .9-1.3.6-2.4 1.4-3.4 2.4s-1.8 2.3-2.4 3.7c-.6 1.4-1 2.9-1.2 4.6H524V76h-10.9c.2 1.8.6 3.5 1.3 4.9.7 1.4 1.6 2.6 2.7 3.6s2.3 1.7 3.7 2.2c1.1.4 2.1.6 3.3.7v4.4c-2-.1-3.9-.5-5.7-1.3-2-.8-3.8-2-5.4-3.6-1.6-1.6-2.8-3.4-3.6-5.6-.9-2.2-1.3-4.6-1.3-7.2V74c0-2.5.4-4.8 1.2-6.9.8-2.1 1.9-4 3.4-5.6 1.5-1.6 3.2-2.9 5.2-3.8 1.9-.8 4-1.2 6.2-1.3zM328.4 91.9v-8c.4 0 .8.1 1.2.1 1.4 0 2.7-.2 3.8-.6 1.2-.4 2.3-1 3.3-1.8.4-.3.7-.5 1.1-.6.4-.1.8-.2 1.3-.2.8 0 1.4.2 2 .5.6.3 1 .8 1.4 1.4.3.6.5 1.3.5 2s-.1 1.2-.4 1.7-.6.9-.9 1.2c-1.5 1.3-3.3 2.4-5.3 3.1-2 .8-4.3 1.1-6.9 1.1-.4.1-.8.1-1.1.1zm0-14.9v-6.2h7.5c-.2-1.5-.6-2.8-1.2-3.9s-1.5-2-2.5-2.6c-1-.6-2.3-.9-3.7-1h-.1v-8h.1c2.4 0 4.4.4 6.3 1.1 1.8.7 3.4 1.6 4.8 2.8 1.3 1.2 2.5 2.5 3.3 4 .9 1.5 1.5 3 1.9 4.6.4 1.6.6 3.1.6 4.6 0 1-.2 1.8-.6 2.5-.4.7-1 1.3-1.7 1.7-.7.4-1.5.6-2.4.6h-12.3V77zM385 60.5c0-.9-.2-1.8-.7-2.5-.4-.8-1-1.3-1.8-1.8-.7-.4-1.6-.7-2.5-.7-.9 0-1.8.2-2.5.7-.8.4-1.3 1-1.8 1.8-.4.7-.7 1.6-.7 2.5v15c0 1.6-.3 2.9-.8 4s-1.2 1.9-2.2 2.4c-.9.5-2 .8-3.3.8-1.9 0-3.4-.6-4.5-1.8-1-1.2-1.6-3-1.6-5.4v-15c0-.9-.2-1.8-.7-2.5-.4-.8-1-1.3-1.8-1.8-.7-.4-1.6-.7-2.5-.7-.9 0-1.8.2-2.5.7-.8.4-1.3 1-1.8 1.8-.4.7-.7 1.6-.7 2.5v18.2c0 2.7.5 5 1.4 7 .9 1.9 2.3 3.4 4.1 4.5s3.9 1.6 6.5 1.6c1.7 0 3.2-.3 4.4-.8 1.3-.5 2.4-1.2 3.3-2.1 1-.9 1.8-1.8 2.6-2.8v.4c0 .9.2 1.8.7 2.5.4.8 1 1.3 1.8 1.8.7.4 1.6.7 2.5.7s1.8-.2 2.5-.7c.8-.4 1.3-1 1.8-1.8.4-.7.7-1.6.7-2.5v-26h.1zm21.3 31.3c1.9 0 3.7-.2 5.3-.7 1.6-.4 3.1-1.1 4.3-2.1 1.2-.9 2.2-2.1 2.8-3.5.7-1.4 1-3.1 1-5.1v-.1c0-1.6-.3-3-1-4.1-.6-1.2-1.5-2.1-2.5-2.9-1-.8-2.2-1.5-3.4-2-1.2-.5-2.5-1-3.7-1.4-1.3-.4-2.5-.8-3.5-1.2-1.1-.4-1.9-.8-2.6-1.3-.7-.5-1-1-1-1.7v-.1c0-.7.3-1.3.9-1.7.6-.5 1.5-.7 2.7-.7 1.1 0 2.2.2 3.5.6 1.3.4 2.7.9 4.1 1.6.3.2.6.3.9.4.3.1.6.1.9.1.8 0 1.4-.2 2-.5.6-.3 1.1-.8 1.4-1.4.4-.6.5-1.3.5-2 0-.9-.2-1.6-.6-2.2-.4-.6-1-1.1-1.7-1.5-1.7-.9-3.5-1.5-5.4-2-1.9-.5-3.7-.7-5.6-.7-1.8 0-3.4.3-5 .7-1.6.5-2.9 1.2-4.1 2.2-1.2 1-2.1 2.1-2.8 3.5-.7 1.4-1 3-1 4.8v.1c0 1.7.3 3.1 1 4.3.6 1.2 1.4 2.2 2.5 3 1 .8 2.2 1.5 3.4 2s2.5 1 3.7 1.3c1 .3 1.9.6 2.8.8.9.3 1.7.5 2.3.8.7.3 1.2.6 1.6 1 .4.4.6.8.6 1.4v.1c0 .8-.3 1.4-1 1.9s-1.7.7-3.2.7c-1.4 0-2.9-.3-4.6-.8-1.6-.5-3.3-1.3-5-2.4-.3-.2-.6-.3-.9-.4-.3-.1-.7-.1-1.1-.1-.8 0-1.4.2-2 .5-.6.3-1.1.8-1.4 1.4-.3.6-.5 1.3-.5 2 0 .8.2 1.5.6 2.1.4.6.8 1 1.3 1.4 2.1 1.4 4.4 2.4 6.6 3 2.5.6 4.8.9 6.9.9zm34.9-3c0 .5.1.9.4 1.3.2.4.5.7.9.9.4.2.8.4 1.3.4s.9-.1 1.3-.4c.4-.2.7-.5.9-.9.2-.4.4-.8.4-1.3V49.9h13.3c.4 0 .8-.1 1.2-.3.4-.2.7-.5.9-.8.2-.4.3-.8.3-1.2 0-.4-.1-.9-.3-1.2-.2-.4-.5-.7-.9-.9s-.8-.3-1.2-.3h-31.9c-.4 0-.8.1-1.2.3-.4.2-.7.5-.9.9-.2.4-.3.8-.3 1.2 0 .4.1.8.3 1.2.2.4.5.6.9.8.4.2.8.3 1.2.3h13.3v38.9h.1zm28.5.1c0 .7.3 1.3.7 1.8.5.5 1.1.7 1.8.7s1.3-.3 1.8-.7c.5-.5.7-1.1.7-1.8V71.7c0-2.1.5-4 1.3-5.6.9-1.6 2.1-2.8 3.6-3.7 1.5-.9 3.3-1.3 5.2-1.3 2 0 3.7.4 5.1 1.3 1.4.8 2.5 2 3.2 3.5s1.1 3.4 1.1 5.5V89c0 .7.3 1.3.7 1.8.5.5 1.1.7 1.8.7s1.3-.3 1.8-.7c.5-.5.7-1.1.7-1.8V70.1c0-2.7-.5-5.1-1.5-7.1s-2.5-3.6-4.4-4.8c-1.9-1.1-4.3-1.7-7-1.7-1.9 0-3.6.3-5.1.9-1.5.6-2.7 1.4-3.8 2.4s-2 2.1-2.7 3.4V45.5c0-.5-.1-.9-.3-1.3s-.5-.7-.9-.9c-.4-.2-.8-.4-1.3-.4s-.9.1-1.3.4c-.4.2-.7.5-.9.9-.2.4-.3.8-.3 1.3v43.4zM328.4 55.2v8c-1.3 0-2.5.3-3.5.9-1.1.6-1.9 1.5-2.6 2.6-.7 1.1-1.1 2.4-1.4 4h7.5v6.2H321c.5 2.3 1.5 4 3 5.1 1.2.9 2.7 1.5 4.4 1.7v8c-2.2-.1-4.3-.5-6.3-1.3-2.2-.9-4.2-2.1-5.8-3.7-1.7-1.6-2.9-3.5-3.8-5.7-.9-2.2-1.4-4.7-1.4-7.4v-.1c0-2.5.4-4.9 1.3-7.1.8-2.2 2-4.2 3.6-5.8 1.5-1.7 3.4-3 5.5-4 2-.8 4.3-1.3 6.9-1.4zm-68.2 36.7v-8.6h.1c1.4 0 2.7-.3 3.8-.8s2.1-1.2 2.9-2.1c.8-.9 1.4-1.9 1.8-3.1.4-1.1.6-2.4.6-3.7v-.1c0-1.3-.2-2.5-.7-3.7-.4-1.2-1.1-2.2-1.9-3.1s-1.8-1.6-2.9-2.1c-1.1-.5-2.3-.8-3.7-.8v-8.6h.1c2.7 0 5.3.5 7.6 1.4 2.3.9 4.3 2.2 6 3.9s3 3.6 4 5.8c.9 2.2 1.4 4.6 1.4 7.1v.1c0 2.5-.5 4.9-1.4 7.1-1 2.2-2.3 4.2-4 5.8-1.7 1.7-3.7 3-6.1 3.9-2.3 1.1-4.9 1.6-7.6 1.6zm38.2-.2c1.1 0 2.1-.1 3-.2.9-.2 1.8-.4 2.7-.8.5-.2.9-.4 1.3-.8s.7-.8.9-1.3c.2-.5.4-1.1.4-1.6 0-.8-.2-1.5-.6-2.1-.4-.6-.9-1.1-1.5-1.5-.6-.4-1.3-.5-2.1-.6h-1.1c-1.1 0-1.9-.3-2.5-.8-.5-.6-.8-1.4-.8-2.6v-15h4.4c.8 0 1.5-.2 2.2-.6.6-.4 1.1-.9 1.5-1.5.4-.6.6-1.4.6-2.2 0-.8-.2-1.5-.6-2.2-.4-.6-.9-1.1-1.5-1.5-.6-.4-1.4-.6-2.2-.6h-4.4v-4.4c0-.9-.2-1.8-.7-2.5-.4-.8-1-1.3-1.8-1.8-.7-.4-1.6-.7-2.5-.7s-1.8.2-2.5.7c-.8.4-1.3 1-1.8 1.8-.4.7-.7 1.6-.7 2.5v4.4h-.3c-.8 0-1.5.2-2.2.6-.6.4-1.1.9-1.5 1.5-.4.6-.6 1.4-.6 2.2 0 .8.2 1.5.6 2.2.4.6.9 1.1 1.5 1.5.6.4 1.4.6 2.2.6h.3v16.7c0 2 .3 3.7.7 5.1.5 1.4 1.2 2.4 2.1 3.3.9.8 2 1.4 3.2 1.7 1.4.4 2.7.5 4.3.5zM191.7 77.3c2.5 0 4.8-.4 6.9-1 2.2-.7 4.2-1.7 5.9-3.1 1.7-1.3 3-3 4-5s1.4-4.4 1.5-7v-.1c0-2.4-.4-4.5-1.2-6.5-.8-1.9-2-3.6-3.5-5s-3.4-2.5-5.5-3.3c-2.2-.8-4.6-1.1-7.4-1.2h-.7v9.1c1.6 0 3 .3 4.2.8 1.2.5 2.2 1.3 2.8 2.3.7 1 1 2.3 1 3.8v.1c0 1.3-.3 2.5-1 3.6-.6 1-1.5 1.9-2.7 2.5-1.2.6-2.6.9-4.3.9v9.1zm68.5-22.1v8.6h-.1c-1.4 0-2.7.3-3.8.8-1.1.5-2.1 1.2-2.9 2.1s-1.4 1.9-1.8 3.1c-.4 1.2-.6 2.4-.6 3.7v.1c0 1.3.2 2.5.7 3.7.4 1.2 1.1 2.2 1.9 3.1.8.9 1.8 1.6 2.9 2.1 1.1.5 2.4.8 3.7.8v8.6h-.1c-2.7 0-5.3-.5-7.6-1.4-2.3-.9-4.3-2.2-6-3.9-1.7-1.7-3-3.6-4-5.8-.9-2.2-1.4-4.6-1.4-7.1v-.1c0-2.6.5-4.9 1.4-7.1 1-2.2 2.3-4.2 4-5.8 1.7-1.7 3.7-3 6.1-3.9 2.3-1.1 4.9-1.5 7.6-1.6zm-43.8 31.3c0 .9.2 1.8.7 2.5.4.8 1 1.3 1.8 1.8.7.4 1.6.7 2.5.7.9 0 1.8-.2 2.5-.7.8-.4 1.3-1 1.8-1.8.4-.7.7-1.6.7-2.5v-9.3c0-3.5.7-6.3 2-8.3s3.3-3.3 5.8-3.9c.7-.2 1.3-.4 1.9-.8s1-.9 1.4-1.6c.3-.6.5-1.4.5-2.3 0-1-.2-1.8-.6-2.5-.4-.7-.9-1.3-1.7-1.7-.7-.4-1.6-.6-2.6-.6s-1.9.3-2.7.9c-.8.6-1.6 1.4-2.3 2.4s-1.3 2.1-1.7 3.2v-1.6c0-.9-.2-1.8-.7-2.5-.4-.8-1-1.3-1.8-1.8-.7-.4-1.6-.7-2.5-.7-.9 0-1.8.2-2.5.7-.8.4-1.3 1-1.8 1.8-.4.7-.7 1.6-.7 2.5v26.1zm-42.9 0c0 1 .2 1.8.7 2.6.4.8 1 1.4 1.8 1.8.8.4 1.6.7 2.6.7s1.8-.2 2.6-.7c.8-.4 1.4-1 1.8-1.8.4-.8.7-1.6.7-2.6v-9.1h8v-9h-8V54.3h8v-9.1h-13.1c-1 0-1.8.2-2.6.7-.8.4-1.4 1.1-1.8 1.8-.4.8-.7 1.6-.7 2.6v36.2z"/><path opacity=".15" d="M54.2 93c0 1.4.3 2.6 1 3.7.6 1.1 1.4 2 2.5 2.6 1 .6 2.2 1 3.5 1 1.3 0 2.5-.4 3.5-1 1.1-.6 1.9-1.5 2.5-2.6.6-1.1.9-2.3.9-3.7V79.8l12.8-.1c6.1 0 11.9-1.7 17.3-7.1 4.8-4.8 5.3-14.4 1.7-21.5-3-5.9-8.5-10.4-14.9-12-.2-.1-.7-.2-1-.2-1-.1-.8.1-.9.2.4.3.6.6.9 1.1 1 1.8 1.9 9.4-.1 11.6l-.6.7c5.3 1.5 7 10.3 3.1 14.3-1.3 1.4-3.7 2.5-6.4 2.6l-11.9.2V52.5h9.3c.8 0 1.5-.3 2.2-.9.7-.6 1.2-1.4 1.6-2.4.4-1 .6-2.1.6-3.4 0-1.2-.2-2.4-.6-3.4-.4-1-.9-1.8-1.6-2.4-.7-.6-1.4-.9-2.2-.9H43.6c-1.2 0-2.3.3-3.2.9-1 .6-1.7 1.4-2.3 2.4-.6 1-.9 2.1-.9 3.4 0 1.2.3 2.4.9 3.4.6 1 1.3 1.8 2.3 2.4 1 .6 2 .9 3.2.9h10.6V93z"/><path fill="#FFF" d="M53.2 92c0 1.4.3 2.6 1 3.7.6 1.1 1.4 2 2.5 2.6 1 .6 2.2 1 3.5 1 1.3 0 2.5-.4 3.5-1 1.1-.6 1.9-1.5 2.5-2.6.6-1.1.9-2.3.9-3.7V78.8l12.8-.1c6.1 0 11.9-1.7 17.3-7.1 4.8-4.8 5.3-14.4 1.7-21.5-3-5.9-8.5-10.4-14.9-12-.2-.1-.7-.2-1-.2-1-.1-.8.1-.9.2.4.3.6.6.9 1.1 1 1.8 1.9 9.4-.1 11.6l-.6.7c5.3 1.5 7 10.3 3.1 14.3-1.3 1.4-3.7 2.5-6.4 2.6l-11.9.2V51.5h9.3c.8 0 1.5-.3 2.2-.9.7-.6 1.2-1.4 1.6-2.4.4-1 .6-2.1.6-3.4 0-1.2-.2-2.4-.6-3.4-.4-1-.9-1.8-1.6-2.4-.7-.6-1.4-.9-2.2-.9H42.6c-1.2 0-2.3.3-3.2.9-1 .6-1.7 1.4-2.3 2.4-.6 1-.9 2.1-.9 3.4 0 1.2.3 2.4.9 3.4.6 1 1.3 1.8 2.3 2.4 1 .6 2 .9 3.2.9h10.6V92z"/></svg>